<svg xmlns="http://www.w3.org/2000/svg" width="32" height="30" fill="none">
	<path fill="#051367" fill-rule="evenodd" d="M15.903 19.157a1.084 1.084 0 0 1 1.085 1.085V26.3l1.04-1.041a1.084 1.084 0 1 1 1.533 1.532l-2.891 2.892a1.085 1.085 0 0 1-1.533 0l-2.892-2.892a1.084 1.084 0 1 1 1.533-1.532l1.041 1.04v-6.057a1.084 1.084 0 0 1 1.084-1.085Z" clip-rule="evenodd"/>
	<path fill="#051367" d="M16.23 2.169c-3.975 0-7.176 3.18-7.176 7.08 0 .668.094 1.314.267 1.924.719.209 1.393.52 2 .926a1.085 1.085 0 1 1-1.196 1.807 5.118 5.118 0 0 0-2.844-.852c-2.835 0-5.112 2.27-5.112 5.04s2.277 5.04 5.112 5.04a1.084 1.084 0 1 1 0 2.168C3.271 25.302 0 22.087 0 18.095c0-3.911 3.137-7.075 7.033-7.205a9.204 9.204 0 0 1-.148-1.641C6.885 4.129 11.081 0 16.231 0c4.566 0 8.38 3.244 9.188 7.549 3.325 1.412 5.666 4.681 5.666 8.504 0 4.444-3.163 8.142-7.363 9.04a1.085 1.085 0 0 1-.454-2.12c3.238-.694 5.649-3.537 5.649-6.92 0-3.09-2.01-5.728-4.827-6.691a7.285 7.285 0 0 0-4.748.014 1.084 1.084 0 0 1-.714-2.047c1.402-.49 2.9-.64 4.372-.441a7.174 7.174 0 0 0-6.77-4.72Z"/>
</svg>