<svg xmlns="http://www.w3.org/2000/svg" width="32" height="32" fill="none">
	<path stroke="#051367" stroke-linecap="round" stroke-width="1.5" d="M13 31c-5.657 0-8.486 0-10.242-1.758C1 27.485 1 26.157 1 20.5m30 0c0 5.657 0 6.985-1.758 8.742C27.485 31 24.657 31 19 31m0-30c5.657 0 8.485 0 10.242 1.758C31 4.514 31 5.843 31 11.5M13 1C7.343 1 4.514 1 2.758 2.758 1 4.514 1 5.843 1 11.5"/>
	<path stroke="#051367" stroke-width="1.5" d="M6.838 19.09C5.945 18.055 5.5 17.538 5.5 16c0-1.537.446-2.055 1.338-3.09C8.62 10.843 11.608 8.5 16 8.5c4.39 0 7.38 2.343 9.162 4.41.893 1.035 1.338 1.553 1.338 3.09 0 1.538-.445 2.055-1.338 3.09-1.782 2.067-4.77 4.41-9.162 4.41-4.39 0-7.38-2.343-9.162-4.41Z"/>
	<path stroke="#051367" stroke-width="1.5" d="M16 19a3 3 0 1 0 0-6 3 3 0 0 0 0 6Z"/>
</svg>