<svg width="190" height="220" viewBox="0 0 190 220" fill="none" xmlns="http://www.w3.org/2000/svg">
<g opacity="0.5">
<rect width="10" height="10" rx="5" fill="#051367"/>
<rect y="30" width="10" height="10" rx="5" fill="#051367"/>
<rect y="60" width="10" height="10" rx="5" fill="#051367"/>
<rect y="90" width="10" height="10" rx="5" fill="#051367"/>
<rect y="120" width="10" height="10" rx="5" fill="#051367"/>
<rect y="150" width="10" height="10" rx="5" fill="#051367"/>
<rect y="180" width="10" height="10" rx="5" fill="#051367"/>
<rect y="210" width="10" height="10" rx="5" fill="#051367"/>
<rect x="30" width="10" height="10" rx="5" fill="#051367"/>
<rect x="30" y="30" width="10" height="10" rx="5" fill="#051367"/>
<rect x="30" y="60" width="10" height="10" rx="5" fill="#051367"/>
<rect x="30" y="90" width="10" height="10" rx="5" fill="#051367"/>
<rect x="30" y="120" width="10" height="10" rx="5" fill="#051367"/>
<rect x="30" y="150" width="10" height="10" rx="5" fill="#051367"/>
<rect x="30" y="180" width="10" height="10" rx="5" fill="#051367"/>
<rect x="30" y="210" width="10" height="10" rx="5" fill="#051367"/>
<rect x="60" width="10" height="10" rx="5" fill="#051367"/>
<rect x="60" y="30" width="10" height="10" rx="5" fill="#051367"/>
<rect x="60" y="60" width="10" height="10" rx="5" fill="#051367"/>
<rect x="60" y="90" width="10" height="10" rx="5" fill="#051367"/>
<rect x="60" y="120" width="10" height="10" rx="5" fill="#051367"/>
<rect x="60" y="150" width="10" height="10" rx="5" fill="#051367"/>
<rect x="60" y="180" width="10" height="10" rx="5" fill="#051367"/>
<rect x="60" y="210" width="10" height="10" rx="5" fill="#051367"/>
<rect x="90" width="10" height="10" rx="5" fill="#051367"/>
<rect x="90" y="30" width="10" height="10" rx="5" fill="#051367"/>
<rect x="90" y="60" width="10" height="10" rx="5" fill="#051367"/>
<rect x="90" y="90" width="10" height="10" rx="5" fill="#051367"/>
<rect x="90" y="120" width="10" height="10" rx="5" fill="#051367"/>
<rect x="90" y="150" width="10" height="10" rx="5" fill="#051367"/>
<rect x="90" y="180" width="10" height="10" rx="5" fill="#051367"/>
<rect x="90" y="210" width="10" height="10" rx="5" fill="#051367"/>
<rect x="120" width="10" height="10" rx="5" fill="#051367"/>
<rect x="120" y="30" width="10" height="10" rx="5" fill="#051367"/>
<rect x="120" y="60" width="10" height="10" rx="5" fill="#051367"/>
<rect x="120" y="90" width="10" height="10" rx="5" fill="#051367"/>
<rect x="120" y="120" width="10" height="10" rx="5" fill="#051367"/>
<rect x="120" y="150" width="10" height="10" rx="5" fill="#051367"/>
<rect x="120" y="180" width="10" height="10" rx="5" fill="#051367"/>
<rect x="120" y="210" width="10" height="10" rx="5" fill="#051367"/>
<rect x="150" width="10" height="10" rx="5" fill="#051367"/>
<rect x="150" y="30" width="10" height="10" rx="5" fill="#051367"/>
<rect x="150" y="60" width="10" height="10" rx="5" fill="#051367"/>
<rect x="150" y="90" width="10" height="10" rx="5" fill="#051367"/>
<rect x="150" y="120" width="10" height="10" rx="5" fill="#051367"/>
<rect x="150" y="150" width="10" height="10" rx="5" fill="#051367"/>
<rect x="150" y="180" width="10" height="10" rx="5" fill="#051367"/>
<rect x="150" y="210" width="10" height="10" rx="5" fill="#051367"/>
<rect x="180" width="10" height="10" rx="5" fill="#051367"/>
<rect x="180" y="30" width="10" height="10" rx="5" fill="#051367"/>
<rect x="180" y="60" width="10" height="10" rx="5" fill="#051367"/>
<rect x="180" y="90" width="10" height="10" rx="5" fill="#051367"/>
<rect x="180" y="120" width="10" height="10" rx="5" fill="#051367"/>
<rect x="180" y="150" width="10" height="10" rx="5" fill="#051367"/>
<rect x="180" y="180" width="10" height="10" rx="5" fill="#051367"/>
<rect x="180" y="210" width="10" height="10" rx="5" fill="#051367"/>
</g>
</svg>
